<?xml version="1.0" encoding="UTF-8" standalone="no"?><!DOCTYPE svg PUBLIC "-//W3C//DTD SVG 1.1//EN" "http://www.w3.org/Graphics/SVG/1.1/DTD/svg11.dtd"><svg width="100%" height="100%" viewBox="0 0 293 220" version="1.1" xmlns="http://www.w3.org/2000/svg" xmlns:xlink="http://www.w3.org/1999/xlink" xml:space="preserve" xmlns:serif="http://www.serif.com/" style="fill-rule:evenodd;clip-rule:evenodd;stroke-linecap:round;stroke-linejoin:round;stroke-miterlimit:1.5;"><rect id="Artboard1" x="0" y="0" width="292.571" height="219.429" style="fill:none;"/><g id="Artboard11" serif:id="Artboard1"><ellipse cx="145.431" cy="107.963" rx="137.355" ry="103.486" style="fill:none;stroke:#fff;stroke-width:6.5px;"/></g><path id="paper-plane" d="M206.55,27.32c1.842,1.387 2.719,3.612 2.37,5.93l-22.463,142.338c-0.264,1.762 -1.314,3.244 -2.808,4.17c-0.792,0.462 -1.758,0.741 -2.718,0.741c-0.702,-0 -1.404,-0.184 -2.106,-0.463l-39.749,-17.145l-21.234,27.334c-1.05,1.388 -2.634,2.13 -4.302,2.13c-0.612,-0 -1.314,-0.095 -1.932,-0.374c-2.195,-0.836 -3.684,-3.06 -3.684,-5.563l0,-32.34l75.815,-98.137l-93.802,85.718l-34.662,-15.011c-2.016,-0.836 -3.335,-2.782 -3.51,-5.095c-0.089,-2.224 0.966,-4.353 2.808,-5.468l146.013,-88.961c0.876,-0.558 1.842,-0.836 2.808,-0.836c1.14,-0 2.28,0.373 3.156,1.02l0,0.012Z" style="fill:#fff;fill-rule:nonzero;"/></svg>